<svg width="300" height="300" viewBox="0 0 300 300" fill="none" xmlns="http://www.w3.org/2000/svg">
<path d="M230.59 258.5C198.59 250.5 87.7428 238.5 36.2428 258.5C22.4263 263.866 10.3197 270.995 0 278.555C-7.9628 284.388 -14.8617 290.478 -20.6614 296.213C-27.8098 303.281 -43 298.111 -43 288.058V7C-43 1.47715 -38.5228 -3 -33 -3H297C298.656 -3 299.997 -1.65564 299.993 0L299.506 195.007C299.502 196.644 299.118 198.218 298.311 199.642C291.748 211.233 259.206 265.654 230.59 258.5Z" fill="url(#paint0_linear)"/>
<defs>
<linearGradient id="paint0_linear" x1="25.2977" y1="-3.00003" x2="364.407" y2="4.95173" gradientUnits="userSpaceOnUse">
<stop stop-color="#EC4160"/>
<stop offset="1" stop-color="#FEB68D"/>
</linearGradient>
</defs>
</svg>
